<?xml version="1.0" encoding="UTF-8" standalone="no"?>
<!-- Generator: Adobe Illustrator 21.0.0, SVG Export Plug-In . SVG Version: 6.00 Build 0)  -->

<svg
   xmlns:dc="http://purl.org/dc/elements/1.1/"
   xmlns:cc="http://creativecommons.org/ns#"
   xmlns:rdf="http://www.w3.org/1999/02/22-rdf-syntax-ns#"
   xmlns:svg="http://www.w3.org/2000/svg"
   xmlns="http://www.w3.org/2000/svg"
   xmlns:sodipodi="http://sodipodi.sourceforge.net/DTD/sodipodi-0.dtd"
   xmlns:inkscape="http://www.inkscape.org/namespaces/inkscape"
   version="1.1"
   id="Capa_1"
   x="0px"
   y="0px"
   viewBox="0 0 1025 480"
   style="enable-background:new 0 0 1025 480;"
   xml:space="preserve"
   sodipodi:docname="logo.svg"
   inkscape:version="0.92.3 (2405546, 2018-03-11)"><metadata
   id="metadata47"><rdf:RDF><cc:Work
       rdf:about=""><dc:format>image/svg+xml</dc:format><dc:type
         rdf:resource="http://purl.org/dc/dcmitype/StillImage" /></cc:Work></rdf:RDF></metadata><defs
   id="defs45" /><sodipodi:namedview
   pagecolor="#ffffff"
   bordercolor="#666666"
   borderopacity="1"
   objecttolerance="10"
   gridtolerance="10"
   guidetolerance="10"
   inkscape:pageopacity="0"
   inkscape:pageshadow="2"
   inkscape:window-width="1920"
   inkscape:window-height="1020"
   id="namedview43"
   showgrid="false"
   inkscape:zoom="0.36487805"
   inkscape:cx="517.98128"
   inkscape:cy="175.78277"
   inkscape:window-x="0"
   inkscape:window-y="31"
   inkscape:window-maximized="1"
   inkscape:current-layer="Capa_1" />
<style
   type="text/css"
   id="style2">
	.st0{fill:#EFCA2B;}
	.st1{fill:#D6B425;}
	.st2{fill:#CCA915;}
	.st3{fill:#FC8108;}
</style>

<g
   id="g882"
   transform="matrix(0.7464681,0,0,0.7464681,8.8638989,52.527724)"
   style="stroke-width:1.37179339;stroke-miterlimit:4;stroke-dasharray:none"><path
     id="path866"
     d="m 175.9707,77.904297 c -0.89215,-0.197905 -35.56412,19.113627 -77.048825,42.914063 l -75.425781,43.27344 0.289062,86.74023 0.291016,86.74219 19.271484,11.08203 c 10.59924,6.09594 44.522284,25.62999 75.384764,43.4082 l 56.11328,32.32422 5.10157,-2.80469 c 2.80568,-1.54294 36.85523,-21.01148 75.66406,-43.26367 l 70.56055,-40.45898 -0.041,-87.28906 -0.043,-87.28711 -74.24609,-42.50977 C 211.00558,97.394718 176.86285,78.102202 175.9707,77.904297 Z m -2.72265,47.044923 c 2.77416,-0.30432 12.27415,4.87836 57.63281,31.04883 l 55.64453,32.10547 -0.29297,63.9707 -0.29297,63.97266 -49.8789,28.82812 c -27.43332,15.85509 -52.42946,30.25196 -55.54688,31.99414 l -5.66797,3.16797 -55.22461,-31.85742 -55.222652,-31.85742 0.24414,-64.52149 0.244141,-64.52148 52.712891,-30.50782 c 28.99203,-16.77892 53.81976,-31.04093 55.17383,-31.69336 0.13379,-0.0645 0.28966,-0.10861 0.47461,-0.1289 z"
     style="fill:#05f905;stroke-width:1.37179339;stroke-miterlimit:4;stroke-dasharray:none"
     inkscape:connector-curvature="0" /><path
     id="path864"
     d="m 175.9707,77.904297 c -0.89215,-0.197905 -35.56016,19.111939 -77.041012,42.910153 l -75.419922,43.26953 v 64.5 c 0,39.56022 0.411963,64.5 1.066406,64.5 0.586858,0 9.386434,5.06065 19.554687,11.2461 10.168253,6.18545 18.867612,11.28654 19.330079,11.33594 0.462467,0.0494 0.971794,-28.81558 1.132812,-64.14454 l 0.292969,-64.23437 54.412111,-31.53125 c 29.92726,-17.34226 55.18,-31.36875 56.11523,-31.16797 0.93523,0.20079 26.15597,14.4855 56.04688,31.74219 l 54.34765,31.375 13.10157,-7.60352 c 7.20643,-4.18211 16.28672,-9.42084 20.17773,-11.64258 3.89101,-2.22174 7.05731,-4.29567 7.03711,-4.60742 C 326.076,163.09512 178.04847,78.365211 175.9707,77.904297 Z M 64.949219,317.03906 c -0.215544,0.2288 -0.573835,10.08315 -0.794922,21.89844 l -0.402344,21.48242 55.546877,31.94922 55.54687,31.94727 0.3086,-21.62305 c 0.23371,-16.37409 -0.0407,-21.9461 -1.13282,-22.95313 -2.14927,-1.98185 -108.616154,-63.18534 -109.072261,-62.70117 z"
     style="fill:#4c4d4c;stroke-width:1.37179339;stroke-miterlimit:4;stroke-dasharray:none"
     inkscape:connector-curvature="0" /></g><g
   id="g944"
   transform="matrix(1.0243249,0,0,1.0243249,-94.09886,-47.558518)"
   style="stroke:#000000;stroke-width:0.99968284;stroke-miterlimit:4;stroke-dasharray:none;stroke-opacity:1"><g
     transform="translate(141.99469,-642.77961)"
     id="g930"
     style="stroke:#000000;stroke-width:0.99968284;stroke-miterlimit:4;stroke-dasharray:none;stroke-opacity:1"><path
       inkscape:connector-curvature="0"
       style="fill:#040404;stroke:#000000;stroke-width:0.99968284;stroke-miterlimit:4;stroke-dasharray:none;stroke-opacity:1"
       d="m 904.08496,979.89583 c -7.5364,-3.82208 -12.8775,-10.5821 -14.5602,-18.4282 -0.7779,-3.62739 -1.238,-22.60257 -1.238,-51.06111 v -45.28855 h 2.8341 2.834 v 17.00413 17.00413 h 11.3361 c 10.5803,0 11.3361,0.15114 11.3361,2.26722 0,2.11676 -0.7558,2.26721 -11.3882,2.26721 h -11.3881 l 0.3354,30.50453 0.3355,30.50454 3.506,4.35393 c 4.6333,5.75376 9.7052,9.09388 15.2249,10.02642 2.7671,0.46751 4.5081,1.37982 4.5081,2.36241 0,2.65778 -6.9683,1.88499 -13.6757,-1.51666 z"
       id="path910" /><path
       inkscape:connector-curvature="0"
       style="fill:#040404;stroke:#000000;stroke-width:0.99968284;stroke-miterlimit:4;stroke-dasharray:none;stroke-opacity:1"
       d="m 698.31827,979.72995 c -5.74728,-2.61028 -9.54657,-7.29608 -9.54657,-11.77412 v -3.4156 l 2.5776,3.8249 c 8.04561,11.93888 24.07865,13.22959 34.52859,2.77963 4.4492,-4.44918 4.83733,-5.30858 4.83733,-10.71081 0,-9.94463 -3.66616,-14.5143 -18.70454,-23.31427 -14.23093,-8.32746 -17.57094,-12.36635 -17.57094,-21.24759 0,-8.64437 6.00018,-13.59785 16.65772,-13.75191 7.1628,-0.1035 12.04979,2.90899 12.62524,7.78268 l 0.37594,3.18394 -3.58073,-3.01299 c -4.33995,-3.65182 -7.8231,-4.63293 -13,-3.66173 -4.86465,0.91261 -8.54373,5.38388 -8.54373,10.38339 0,4.95879 4.59771,9.37334 18.19752,17.47262 14.57529,8.68022 20.48576,17.56132 18.55096,27.87471 -1.15507,6.15705 -7.14,14.13919 -12.83759,17.12161 -6.4001,3.35015 -17.74229,3.56508 -24.5668,0.46554 z"
       id="path908" /><path
       inkscape:connector-curvature="0"
       style="fill:#040404;stroke:#000000;stroke-width:0.99968284;stroke-miterlimit:4;stroke-dasharray:none;stroke-opacity:1"
       d="m 788.86914,902.69727 c -12.11029,-0.1952 -18.91637,2.61817 -27.42187,10.99609 -9.47551,9.33335 -12.02735,15.26711 -12.02735,27.9668 0,9.26606 0.34906,10.93644 3.71875,17.78125 4.45154,9.04237 12.52844,16.77757 20.9961,20.10742 8.37707,3.29422 25.1695,2.87745 32.65039,-0.8086 7.22588,-3.56042 15.5621,-12.10614 19.05468,-19.5332 2.54633,-5.41483 2.93013,-7.72516 2.91993,-17.57031 -0.0108,-10.07896 -0.34567,-11.96443 -3.02344,-17.00391 -3.66684,-6.90085 -12.1834,-15.29452 -19.07031,-18.79687 -3.86406,-1.96508 -7.57464,-2.70676 -15.30274,-3.0586 -0.85658,-0.039 -1.68679,-0.0671 -2.49414,-0.0801 z m 0.58594,3.60742 c 5.12508,-0.0646 10.19267,0.92023 14.34765,2.96484 7.19171,3.53896 14.1212,10.46845 17.66016,17.66016 2.32732,4.7295 2.77216,7.2821 2.75586,15.83984 -0.016,8.40888 -0.47296,11.05931 -2.59961,15.07227 -3.92258,7.40185 -9.95902,13.44406 -16.74805,16.76562 -17.62911,8.62512 -38.33615,1.22606 -47.85156,-17.09961 -3.98504,-7.67475 -4.26476,-21.15882 -0.60547,-29.10742 3.45216,-7.49869 10.88354,-15.09817 18.35156,-18.76562 4.38258,-2.15223 9.56438,-3.26548 14.68946,-3.33008 z"
       id="path906" /><path
       inkscape:connector-curvature="0"
       style="fill:#040404;stroke:#000000;stroke-width:0.99968284;stroke-miterlimit:4;stroke-dasharray:none;stroke-opacity:1"
       d="m 847.47689,934.23168 c 0,-52.51858 -0.0149,-52.39398 7.14251,-59.86077 4.45354,-4.64608 10.42571,-7.82019 16.55926,-8.80099 4.1274,-0.66 4.6384,-0.49243 4.6384,1.52112 0,1.78951 -0.9654,2.39235 -4.6154,2.88192 -5.96666,0.80028 -12.53873,5.19555 -15.9333,10.65582 -2.4402,3.92516 -2.72645,5.82869 -3.07992,20.48126 l -0.3897,16.15392 h 12.00919 c 9.91913,0 12.00913,0.29594 12.00913,1.70042 0,1.40352 -2.0782,1.70041 -11.90285,1.70041 h -11.90288 v 30.60743 c 0,29.85169 -0.056,30.60743 -2.26722,30.60743 -2.23126,0 -2.26722,-0.75574 -2.26722,-47.64797 z"
       id="path902" /></g><g
     transform="translate(-43.898117,-514.67361)"
     id="g924"
     style="stroke:#000000;stroke-width:0.99968284;stroke-miterlimit:4;stroke-dasharray:none;stroke-opacity:1"><path
       inkscape:connector-curvature="0"
       style="fill:#040404;stroke:#000000;stroke-width:0.99968284;stroke-miterlimit:4;stroke-dasharray:none;stroke-opacity:1"
       d="m 764.72266,735.88672 v 29.64453 29.64258 l -3.39844,-4.69141 c -4.70462,-6.49453 -13.82162,-12.23661 -23.04102,-14.51172 -6.63489,-1.63732 -8.78596,-1.7096 -15.28711,-0.51172 -18.27587,3.36747 -31.5123,17.26408 -33.68164,35.35938 -2.13897,17.84195 10.25288,36.8389 27.64258,42.37695 3.20576,1.02093 8.57256,1.55586 13.75781,1.37305 11.57389,-0.40808 20.74247,-4.593 28.38672,-12.95703 l 5.6211,-6.15039 v 9.24023 c 0,8.93282 0.0847,9.22719 2.55078,8.87695 l 2.55078,-0.36328 0.29492,-58.66406 0.29297,-58.66406 h -2.84375 z m -36.40235,43.16797 c 9.29668,-0.3026 17.95768,3.15694 25.72266,10.31445 18.17518,16.75329 13.51539,46.64692 -8.9707,57.55274 -19.12872,9.27747 -38.83516,2.11014 -47.9375,-17.4375 -3.29147,-7.06857 -3.6401,-18.99151 -0.80079,-27.36329 2.89545,-8.53735 13.82307,-18.98933 22.48633,-21.50781 3.23092,-0.93925 6.40111,-1.45773 9.5,-1.55859 z"
       id="path900" /><path
       inkscape:connector-curvature="0"
       style="fill:#040404;stroke:#000000;stroke-width:0.99968284;stroke-miterlimit:4;stroke-dasharray:none;stroke-opacity:1"
       d="m 828.83398,775.0293 c -15.38222,-0.0332 -30.65674,8.59244 -37.76171,24.07226 -2.44202,5.32049 -2.98424,8.17452 -2.99024,15.70899 -0.006,8.08941 0.43751,10.11047 3.64844,16.63281 4.47324,9.08641 13.62485,17.84002 22.0293,21.07031 8.15374,3.13393 21.3244,3.189 29.51367,0.125 8.69504,-3.25323 15.53906,-9.38323 15.53906,-13.91797 v -3.54882 l -4.81641,4.65234 c -12.84721,12.40474 -29.54687,14.66844 -43.40039,5.88281 l -5.42968,-3.44336 26.9082,-26.92578 26.90625,-26.92383 -4.08203,-3.58398 c -7.56582,-6.64289 -16.83512,-9.78087 -26.06446,-9.80078 z m -1.54882,4.38476 c 8.54547,0.054 17.73477,2.64312 22.75195,7.1836 1.9788,1.7908 0.91152,3.04679 -22.62109,26.59765 -13.58383,13.59437 -25.07693,24.7168 -25.54102,24.7168 -0.46407,0 -2.13775,-1.9547 -3.71875,-4.34375 -6.25145,-9.44656 -7.23385,-23.56714 -2.33594,-33.57813 3.3193,-6.78439 10.43988,-13.90048 17.81836,-17.80859 3.62366,-1.91933 8.5192,-2.79996 13.64649,-2.76758 z"
       id="path896" /></g><g
     transform="translate(-315.1738,-375.99193)"
     id="g920"
     style="stroke:#000000;stroke-width:0.99968284;stroke-miterlimit:4;stroke-dasharray:none;stroke-opacity:1"><path
       inkscape:connector-curvature="0"
       style="fill:#040404;stroke:#000000;stroke-width:0.99968284;stroke-miterlimit:4;stroke-dasharray:none;stroke-opacity:1"
       d="m 720.43265,715.13809 c -30.34967,-8.61009 -40.03041,-46.77567 -17.20213,-67.81804 2.74023,-2.52586 7.87726,-5.9496 11.41563,-7.60832 5.47262,-2.56547 7.95707,-3.01587 16.63587,-3.01587 8.61685,0 11.17146,0.45634 16.43732,2.93623 9.52114,4.48388 13.60331,8.3965 13.60331,13.03832 v 3.87013 l -4.06238,-4.49657 c -2.23431,-2.47311 -7.16197,-6.04544 -10.95035,-7.93852 -5.86867,-2.93262 -8.17026,-3.44196 -15.55319,-3.44196 -10.95454,0 -18.00345,3.24391 -25.95553,11.94476 -6.56684,7.18516 -9.22785,14.0379 -9.22785,23.76391 0,10.72387 2.69436,17.04088 10.68017,25.03998 8.48445,8.49857 15.16384,11.13509 26.54025,10.47603 9.22234,-0.53426 16.37555,-3.7816 23.42766,-10.63547 l 5.10122,-4.95781 v 3.83009 c 0,3.10119 -0.84579,4.49994 -4.44432,7.35003 -2.44436,1.93599 -6.8226,4.57199 -9.7294,5.85781 -6.61641,2.92676 -19.65708,3.80794 -26.71628,1.80527 z"
       id="path892" /><path
       inkscape:connector-curvature="0"
       style="fill:#040404;stroke:#000000;stroke-width:0.99968284;stroke-miterlimit:4;stroke-dasharray:none;stroke-opacity:1"
       d="m 812.82422,636.08984 c -5.24282,0.0184 -10.50808,0.84906 -14.90039,2.49024 -9.15835,3.42199 -19.41517,13.73728 -22.92383,23.05469 -3.25322,8.63902 -2.90869,22.02516 0.7793,30.28711 5.19021,11.62722 18.3519,21.85095 30.30859,23.54296 6.98598,0.9886 14.16798,0.35083 21.32031,-1.89453 7.3513,-2.30781 17.87329,-12.13528 22.00977,-20.55859 2.78497,-5.67119 3.16015,-7.71771 3.16015,-17.20703 0,-9.49493 -0.37522,-11.5317 -3.16796,-17.21875 -4.07787,-8.30402 -13.5166,-17.0033 -21.81836,-20.10938 -4.30482,-1.61064 -9.52477,-2.40513 -14.76758,-2.38672 z m 0.64453,4.08985 c 9.9793,0.0591 15.86588,2.54136 23.61719,9.95508 18.00278,17.21871 13.92208,46.61054 -8.03125,57.83789 -7.58685,3.88006 -19.06962,4.99428 -26.47266,2.56836 -26.34887,-8.63434 -33.80259,-41.14069 -13.86523,-60.47071 7.33414,-7.11072 14.44287,-9.95172 24.75195,-9.89062 z"
       id="path890" /><path
       inkscape:connector-curvature="0"
       style="fill:#040404;stroke:#000000;stroke-width:0.99968284;stroke-miterlimit:4;stroke-dasharray:none;stroke-opacity:1"
       d="m 906.99219,636.12891 c -12.2422,0 -19.75326,3.1184 -28.43946,11.80468 -8.5394,8.53933 -11.80468,16.24609 -11.80468,27.8711 0,10.64398 3.16609,18.72509 10.46289,26.70898 6.5834,7.20328 14.72789,11.79236 22.96679,12.93945 14.0783,1.9601 26.47616,-2.20582 35.75196,-12.01367 8.6069,-9.10047 10.73533,-14.58014 10.73633,-27.63476 10e-4,-13.19688 -2.39176,-18.94128 -11.84766,-28.43946 -8.0462,-8.08215 -15.85757,-11.23632 -27.82617,-11.23632 z m 0.51172,3.92187 c 5.07536,0.002 10.0261,0.92845 13.6582,2.78125 6.9267,3.53341 14.31173,10.82687 17.89453,17.66992 2.5039,4.78232 2.97548,7.1728 3.02148,15.30274 0.0451,8.00186 -0.41454,10.59296 -2.71874,15.27539 -3.57841,7.2719 -11.23624,14.88841 -17.95704,17.86133 -6.5644,2.90375 -18.41346,3.66967 -24.73046,1.59961 -19.30851,-6.32723 -29.70734,-26.77587 -23.45704,-46.12891 2.5655,-7.9436 11.80786,-17.98305 19.87696,-21.5918 4.13515,-1.84932 9.33674,-2.77178 14.41211,-2.76953 z"
       id="path886" /></g></g></svg>